<?xml version="1.0" standalone="no"?>
<svg xmlns:xlink="http://www.w3.org/1999/xlink" id="wave" style="transform:rotate(180deg); transition: 0.3s" viewBox="0 0 1440 490" version="1.1" xmlns="http://www.w3.org/2000/svg"><defs><linearGradient id="sw-gradient-0" x1="0" x2="0" y1="1" y2="0"><stop stop-color="rgba(9.151, 68.376, 214.338, 1)" offset="0%"/><stop stop-color="rgba(34.806, 98.263, 173.356, 1)" offset="100%"/></linearGradient></defs><path style="transform:translate(0, 0px); opacity:1" fill="url(#sw-gradient-0)" d="M0,0L80,16.3C160,33,320,65,480,81.7C640,98,800,98,960,147C1120,196,1280,294,1440,351.2C1600,408,1760,425,1920,375.7C2080,327,2240,212,2400,196C2560,180,2720,261,2880,285.8C3040,310,3200,278,3360,245C3520,212,3680,180,3840,155.2C4000,131,4160,114,4320,130.7C4480,147,4640,196,4800,220.5C4960,245,5120,245,5280,245C5440,245,5600,245,5760,245C5920,245,6080,245,6240,212.3C6400,180,6560,114,6720,73.5C6880,33,7040,16,7200,49C7360,82,7520,163,7680,236.8C7840,310,8000,376,8160,334.8C8320,294,8480,147,8640,98C8800,49,8960,98,9120,155.2C9280,212,9440,278,9600,310.3C9760,343,9920,343,10080,302.2C10240,261,10400,180,10560,155.2C10720,131,10880,163,11040,187.8C11200,212,11360,229,11440,236.8L11520,245L11520,490L11440,490C11360,490,11200,490,11040,490C10880,490,10720,490,10560,490C10400,490,10240,490,10080,490C9920,490,9760,490,9600,490C9440,490,9280,490,9120,490C8960,490,8800,490,8640,490C8480,490,8320,490,8160,490C8000,490,7840,490,7680,490C7520,490,7360,490,7200,490C7040,490,6880,490,6720,490C6560,490,6400,490,6240,490C6080,490,5920,490,5760,490C5600,490,5440,490,5280,490C5120,490,4960,490,4800,490C4640,490,4480,490,4320,490C4160,490,4000,490,3840,490C3680,490,3520,490,3360,490C3200,490,3040,490,2880,490C2720,490,2560,490,2400,490C2240,490,2080,490,1920,490C1760,490,1600,490,1440,490C1280,490,1120,490,960,490C800,490,640,490,480,490C320,490,160,490,80,490L0,490Z"/><defs><linearGradient id="sw-gradient-1" x1="0" x2="0" y1="1" y2="0"><stop stop-color="rgba(33.731, 41.745, 189.293, 1)" offset="0%"/><stop stop-color="rgba(131.422, 117.812, 207.508, 1)" offset="100%"/></linearGradient></defs><path style="transform:translate(0, 50px); opacity:0.9" fill="url(#sw-gradient-1)" d="M0,49L80,40.8C160,33,320,16,480,49C640,82,800,163,960,179.7C1120,196,1280,147,1440,122.5C1600,98,1760,98,1920,89.8C2080,82,2240,65,2400,114.3C2560,163,2720,278,2880,269.5C3040,261,3200,131,3360,138.8C3520,147,3680,294,3840,302.2C4000,310,4160,180,4320,155.2C4480,131,4640,212,4800,253.2C4960,294,5120,294,5280,302.2C5440,310,5600,327,5760,285.8C5920,245,6080,147,6240,163.3C6400,180,6560,310,6720,302.2C6880,294,7040,147,7200,138.8C7360,131,7520,261,7680,277.7C7840,294,8000,196,8160,155.2C8320,114,8480,131,8640,114.3C8800,98,8960,49,9120,65.3C9280,82,9440,163,9600,212.3C9760,261,9920,278,10080,269.5C10240,261,10400,229,10560,196C10720,163,10880,131,11040,114.3C11200,98,11360,98,11440,98L11520,98L11520,490L11440,490C11360,490,11200,490,11040,490C10880,490,10720,490,10560,490C10400,490,10240,490,10080,490C9920,490,9760,490,9600,490C9440,490,9280,490,9120,490C8960,490,8800,490,8640,490C8480,490,8320,490,8160,490C8000,490,7840,490,7680,490C7520,490,7360,490,7200,490C7040,490,6880,490,6720,490C6560,490,6400,490,6240,490C6080,490,5920,490,5760,490C5600,490,5440,490,5280,490C5120,490,4960,490,4800,490C4640,490,4480,490,4320,490C4160,490,4000,490,3840,490C3680,490,3520,490,3360,490C3200,490,3040,490,2880,490C2720,490,2560,490,2400,490C2240,490,2080,490,1920,490C1760,490,1600,490,1440,490C1280,490,1120,490,960,490C800,490,640,490,480,490C320,490,160,490,80,490L0,490Z"/></svg>